<?xml version="1.0" encoding="utf-8"?>
<!-- Generator: Adobe Illustrator 27.5.0, SVG Export Plug-In . SVG Version: 6.00 Build 0)  -->
<svg version="1.1" id="Layer_1" xmlns="http://www.w3.org/2000/svg" xmlns:xlink="http://www.w3.org/1999/xlink" x="0px" y="0px"
	 viewBox="0 0 850.39 566.93" style="enable-background:new 0 0 850.39 566.93;" xml:space="preserve">
<style type="text/css">
	.st0{fill:#ED1C24;}
	.st1{fill:#00A651;}
</style>
<g>
	<path d="M512.96,360.26c-1.67,1.95-3.34,3.9-5.01,5.85c-4.64,5.42-9.96,10.06-16.32,13.3c-2.36,1.2-5.11,2.06-7.74,2.24
		c-6.88,0.46-10.77-3.32-10.96-10.24c-0.05-2,0.29-4,0.48-6.22c-0.39,0.33-0.69,0.54-0.93,0.8c-4.58,4.95-9.52,9.47-15.44,12.81
		c-3.55,2-7.25,3.41-11.43,2.55c-6.18-1.27-9.54-7.51-7.79-14.36c0.16-0.64,0.27-1.3,0.4-1.95c-0.13-0.08-0.27-0.16-0.4-0.24
		c-0.55,0.53-1.13,1.02-1.65,1.58c-5.14,5.53-10.37,10.99-17.36,14.2c-2.08,0.96-4.55,1.45-6.86,1.48c-4.5,0.06-7.23-2.56-7.8-7.02
		c-0.39-3.05-0.44-6.12,0.73-9.07c0.2-0.51,0.28-1.08,0.08-1.89c-0.52,0.45-1.07,0.86-1.54,1.35c-4.23,4.43-8.18,9.16-13.42,12.53
		c-2.95,1.9-6.06,3.35-9.57,3.87c-7.91,1.17-14.12-2.45-17.09-9.91c-1.5-3.77-1.55-7.67-1.42-11.62c0.02-0.62,0-1.25-0.35-2.15
		c-0.66,0.71-1.4,1.37-1.98,2.14c-3.6,4.79-7.76,9.04-12.4,12.83c-4.84,3.95-9.99,7.35-16.33,8.39c-6.6,1.08-11.25-2.36-12.15-8.96
		c-0.56-4.11-0.01-8.01,1.84-11.81c6.53-13.41,12.97-26.87,19.43-40.32c0.32-0.67,0.58-1.37,1.08-2.56c-2.02,0-3.73,0.13-5.41-0.05
		c-1.05-0.11-2.94-0.71-2.93-1.02c0.06-1.27,0.49-2.66,1.18-3.75c1.06-1.68,2.79-2.36,4.81-2.13c0.17,0.02,0.35,0,0.52-0.01
		c1.77-0.07,3.93,0.46,5.21-0.37c1.3-0.84,1.76-3.01,2.53-4.62c2.35-4.9,4.64-9.83,7-14.73c2.09-4.32,3.55-5.11,8.35-4.83
		c1.79,0.11,3.59,0.24,5.38,0.24c1.54,0,1.83,0.85,1.44,2.02c-0.47,1.42-1.09,2.8-1.74,4.16c-2.61,5.42-5.24,10.83-7.89,16.23
		c-0.81,1.66-0.71,2.03,1.18,2.13c3.64,0.21,7.29,0.23,10.94,0.37c1.69,0.06,1.98,0.51,1.52,2.19c-0.58,2.09-2.96,3.67-5.91,3.74
		c-2.9,0.07-5.8,0.13-8.69-0.04c-2.08-0.12-3.14,0.57-4.06,2.52c-6.07,12.87-12.31,25.65-18.46,38.47c-1.05,2.18-2,4.41-1.2,6.99
		c0.78,2.53,2.3,3.9,4.85,3.16c2.33-0.67,4.69-1.79,6.58-3.28c6.57-5.18,12.31-11.22,17.4-17.86c4.11-5.37,8-10.92,12.25-16.17
		c6.97-8.62,15.09-15.87,25.74-19.68c5.07-1.81,10.26-2.88,15.61-0.89c3.52,1.31,5.84,3.85,7.55,7.06c0.46,0.85,0.92,1.7,1.53,2.82
		c1.13-2.22,2.21-4.1,3.05-6.08c1.12-2.61,2.88-3.9,5.8-3.6c1.67,0.17,3.36,0.06,5.04,0.11c2.4,0.08,2.71,0.4,1.85,2.68
		c-1.03,2.76-2.18,5.48-3.46,8.13c-5.86,12.19-11.83,24.34-17.64,36.56c-0.9,1.88-1.54,4.05-1.62,6.12
		c-0.16,3.84,2.58,5.36,5.88,3.33c2.06-1.26,4.08-2.74,5.71-4.5c5.21-5.65,10.46-11.3,15.23-17.32c2.26-2.84,3.53-6.47,5.15-9.79
		c5.36-10.95,10.68-21.93,16.03-32.9c4.49-9.2,9.02-18.37,13.49-27.58c2.58-5.31,5.1-10.64,7.58-15.99
		c1.12-2.43,2.91-3.65,5.58-3.63c2.26,0.02,4.52-0.01,6.78,0.04c1.88,0.05,2.3,0.5,1.82,2.33c-0.45,1.72-1.06,3.43-1.83,5.04
		c-2.78,5.78-5.68,11.51-8.49,17.28c-5.57,11.44-11.08,22.9-16.67,34.32c-6.76,13.81-13.61,27.58-20.35,41.4
		c-1.34,2.74-2.74,5.53-1.99,8.78c0.62,2.7,3.16,4.34,5.63,3.12c2.6-1.29,5.12-2.96,7.28-4.89c6.5-5.82,11.84-12.69,17.01-19.66
		c1.6-2.16,2.68-4.72,3.85-7.17c3.12-6.52,6.16-13.08,9.22-19.63c0.77-1.66,1.99-2.51,3.86-2.29c0.52,0.06,1.04,0.11,1.54,0.23
		c2.87,0.71,5.73,1.44,8.68,2.18c-1.56,3.19-3.3,6.68-4.99,10.2c-5.21,10.84-10.42,21.68-15.57,32.55
		c-0.71,1.49-1.25,3.13-1.52,4.75c-0.32,1.94,0.72,3.2,2.65,3.63c3.66,0.81,6.66-0.86,9.6-2.64c6.35-3.85,10.8-9.53,14.88-15.54
		c4.54-6.69,8.25-13.93,13.55-20.14c8.27-9.68,18.17-16.7,30.69-19.8c8.13-2.01,15.02,1.49,17.92,9.3c0.12,0.31,0.29,0.6,0.57,1.21
		c1.15-2.21,2.27-4.14,3.17-6.17c1.34-2.99,3.51-4.29,6.77-3.9c1.61,0.19,3.23,0.27,4.85,0.37c1.43,0.1,2.04,0.89,1.57,2.19
		c-0.87,2.38-1.79,4.76-2.89,7.04c-6.32,13.06-12.71,26.09-19.05,39.15c-0.58,1.19-1.04,2.46-1.38,3.74
		c-0.51,1.9-0.33,3.72,1.36,5.03c1.52,1.19,3.34,1.12,5.35-0.16c4.21-2.68,7.58-6.28,10.71-10.08c3.86-4.69,7.52-9.54,11.28-14.31
		c0.57-0.72,1.15-1.47,1.84-2.07c1.33-1.15,2.87-0.72,3.05,1c0.12,1.15-0.25,2.54-0.84,3.56c-4.49,7.68-10.04,14.56-16.25,20.93
		c-4.05,4.15-8.09,8.33-13.1,11.33c-2.6,1.56-5.44,2.84-8.33,3.73c-3.28,1.01-6.69-0.65-8.46-3.61c-1.74-2.9-2.19-6.07-1.64-9.37
		c0.29-1.75,0.77-3.47,1.26-5.62c-0.57,0.49-0.94,0.75-1.24,1.07c-2.9,3.07-5.71,6.23-8.7,9.22c-4.08,4.08-8.82,7.27-14.57,8.3
		c-9.19,1.64-17.17-3.99-18.95-13.14c-0.41-2.08-0.37-4.25-0.51-6.38c-0.05-0.71-0.01-1.42-0.01-2.14
		C513.27,360.35,513.11,360.3,512.96,360.26z M376.86,359.62c-0.04,6.57,4.17,10.05,9.74,8.63c1.97-0.51,4-1.35,5.64-2.53
		c11.72-8.4,20.25-19.36,25.54-32.76c1.25-3.17,1.89-6.53,1.29-10.03c-0.89-5.17-4.69-8.01-9.73-6.64c-2.5,0.68-4.99,1.93-7.09,3.47
		c-9.9,7.27-16.63,17.1-21.77,28.07C378.6,351.81,377.02,355.92,376.86,359.62z M571.54,325.81c-0.09-1.15-0.11-2.31-0.28-3.45
		c-0.55-3.61-3.21-6.91-7.79-6.35c-3.54,0.43-6.58,1.73-9.28,3.92c-10.56,8.52-18.09,19.26-22.88,31.87
		c-1.14,3.01-1.56,6.37-1.79,9.61c-0.4,5.49,5.22,8.42,9.68,6.85c1.84-0.65,3.68-1.46,5.3-2.54c10.68-7.11,18.22-16.94,23.85-28.29
		C570.12,333.82,571.6,330,571.54,325.81z"/>
	<path d="M338.64,254.99c-3.44,0-6.5-0.11-9.55,0.02c-10.47,0.43-20.54,2.55-30.08,7.03c-14.41,6.76-24.59,17.4-30.37,32.26
		c-2.81,7.22-3.87,14.64-2.78,22.29c1.43,9.95,6.05,17.98,14.69,23.49c1.22,0.78,2.36,1.69,3.44,2.64c0.47,0.42,0.71,1.1,1.06,1.66
		c-0.65,0.31-1.29,0.81-1.96,0.88c-3.08,0.34-5.98-0.46-8.75-1.75c-5.07-2.36-8.93-6.17-12.24-10.56
		c-4.8-6.38-8.53-13.28-9.16-21.41c-1.13-14.58,2.98-27.59,12.48-38.74c8.13-9.54,18.24-16.26,30.17-20.29
		c12.45-4.2,25.27-5.67,38.33-5.55c4.11,0.04,8.23,0.29,12.33,0.22c1.08-0.02,2.29-0.71,3.19-1.42
		c8.16-6.44,17.22-11.09,27.31-13.61c6.91-1.72,13.93-2.52,20.97-0.66c1.66,0.44,3.31,1.06,4.85,1.84
		c8.94,4.5,6.83,14.79,1.52,18.88c-4.19,3.22-9.04,4.55-14.16,5.22c-7.51,0.98-15.01,0.91-22.52-0.12
		c-4.7-0.64-9.44-1.05-14.15-1.67c-1.86-0.25-3.17,0.33-4.47,1.64c-9.4,9.51-16.23,20.74-22.01,32.66
		c-6.88,14.22-12.86,28.81-18.23,43.67c-5.51,15.23-11.69,30.19-18.83,44.74c-1.68,3.42-2.99,7.02-4.33,10.59
		c-0.27,0.73-0.22,2.01,0.24,2.53c4.08,4.59,4.34,10.05,3.79,15.7c-0.38,3.91-1.71,7.56-3.59,10.98
		c-6.06,11.05-12.19,22.07-18.28,33.11c-0.75,1.37-1.35,2.84-2.26,4.09c-0.44,0.61-1.43,0.82-2.18,1.21
		c-0.12-0.79-0.56-1.7-0.3-2.34c1.61-3.96,3.37-7.87,5.11-11.78c3.79-8.51,7.62-17,11.36-25.53c0.33-0.75,0.49-1.91,0.12-2.54
		c-0.45-0.78-1.47-1.54-2.35-1.68c-1.3-0.22-2.19,0.76-2.76,1.96c-3.35,6.99-6.71,13.97-10.09,20.94c-2.3,4.73-4.63,9.45-6.98,14.16
		c-0.41,0.82-0.85,1.73-1.54,2.26c-0.54,0.42-1.54,0.52-2.22,0.34c-0.32-0.09-0.55-1.17-0.52-1.79c0.04-0.79,0.32-1.59,0.62-2.33
		c4.96-12.15,9.94-24.3,14.93-36.44c0.6-1.45-0.01-3.11-1.41-3.72c-1.48-0.64-2.83-0.15-3.55,1.44
		c-3.54,7.79-7.03,15.61-10.56,23.41c-2.03,4.48-4.08,8.94-6.14,13.41c-0.22,0.47-0.43,1.02-0.82,1.31
		c-0.45,0.34-1.08,0.42-1.64,0.62c-0.12-0.52-0.45-1.1-0.31-1.55c1.29-4.2,2.59-8.4,4.01-12.55c3.08-9.03,6.18-18.05,9.36-27.04
		c2.3-6.49,6.15-11.87,11.77-15.95c2.45-1.78,5.14-2.9,8.15-3.14c1.08-0.09,1.54-0.6,1.99-1.56c6.03-12.67,8.94-26.36,13.04-39.66
		c5.64-18.25,12-36.24,20.71-53.28c3.89-7.6,8.14-15.07,12.82-22.21c3.43-5.24,7.83-9.86,11.78-14.76
		C338.04,256.14,338.26,255.63,338.64,254.99z M360.3,247.48c0.06,0.28,0.12,0.56,0.18,0.85c2.15,0.22,4.3,0.5,6.46,0.65
		c5.07,0.35,10.15,0.77,15.22,0.91c3.26,0.09,6.55-0.45,9.31-2.32c3.32-2.25,3.23-4.11,0.35-6.39c-2.39-1.9-5.35-2.61-8.37-1.91
		c-4.61,1.08-9.24,2.16-13.7,3.69C366.47,244.08,363.44,245.94,360.3,247.48z"/>
	<path class="st0" d="M521.38,293.14c-0.9,2.39-1.21,4.68-3.08,6.04c-1.4,1.02-3.09,1.09-4.8,0.43c-2.79-1.07-5.57-2.3-9.2-1.01
		c1.21-2.29,2.09-4.14,3.15-5.87c0.25-0.41,1.15-0.66,1.7-0.59c2.1,0.28,4.23,0.54,6.24,1.16
		C517.32,293.9,519.14,294.39,521.38,293.14z"/>
	<path class="st1" d="M499.2,310.14c0.75-1.46,1.49-3.36,2.65-4.94c0.53-0.72,1.91-1.09,2.92-1.11c1.3-0.03,2.64,0.31,3.9,0.71
		c2.29,0.72,4.51,1.85,7.21,0.53c-0.83,1.84-1.42,3.38-2.2,4.83c-0.8,1.49-2.64,2.1-4.57,1.6c-1.57-0.4-3.08-1.06-4.67-1.32
		C502.76,310.17,501.03,310.23,499.2,310.14z"/>
</g>
</svg>
