<?xml version="1.0" encoding="utf-8"?>
<!-- Generator: Adobe Illustrator 27.5.0, SVG Export Plug-In . SVG Version: 6.00 Build 0)  -->
<svg version="1.1" id="Layer_1" xmlns="http://www.w3.org/2000/svg" xmlns:xlink="http://www.w3.org/1999/xlink" x="0px" y="0px"
	 viewBox="0 0 360.8 226.1" style="enable-background:new 0 0 360.8 226.1;" xml:space="preserve">
<style type="text/css">
	.st0{fill:#FFFFFF;}
	.st1{fill:#ED1C24;}
	.st2{fill:#00A651;}
</style>
<path class="st0" d="M268.9,129.8c-1.7,1.9-3.3,3.9-5,5.9c-4.6,5.4-10,10.1-16.3,13.3c-2.4,1.2-5.1,2.1-7.7,2.2
	c-6.9,0.5-10.8-3.3-11-10.2c-0.1-2,0.3-4,0.5-6.2c-0.4,0.3-0.7,0.5-0.9,0.8c-4.6,4.9-9.5,9.5-15.4,12.8c-3.6,2-7.2,3.4-11.4,2.6
	c-6.2-1.3-9.5-7.5-7.8-14.4c0.2-0.6,0.3-1.3,0.4-1.9c-0.1-0.1-0.3-0.2-0.4-0.2c-0.6,0.5-1.1,1-1.6,1.6c-5.1,5.5-10.4,11-17.4,14.2
	c-2.1,1-4.6,1.4-6.9,1.5c-4.5,0.1-7.2-2.6-7.8-7c-0.4-3.1-0.4-6.1,0.7-9.1c0.2-0.5,0.3-1.1,0.1-1.9c-0.5,0.4-1.1,0.9-1.5,1.4
	c-4.2,4.4-8.2,9.2-13.4,12.5c-2.9,1.9-6.1,3.4-9.6,3.9c-7.9,1.2-14.1-2.4-17.1-9.9c-1.5-3.8-1.6-7.7-1.4-11.6c0-0.6,0-1.2-0.3-2.2
	c-0.7,0.7-1.4,1.4-2,2.1c-3.6,4.8-7.8,9-12.4,12.8c-4.8,3.9-10,7.4-16.3,8.4c-6.6,1.1-11.2-2.4-12.2-9c-0.6-4.1,0-8,1.8-11.8
	c6.5-13.4,13-26.9,19.4-40.3c0.3-0.7,0.6-1.4,1.1-2.6c-2,0-3.7,0.1-5.4-0.1c-1.1-0.1-2.9-0.7-2.9-1c0.1-1.3,0.5-2.7,1.2-3.8
	c1.1-1.7,2.8-2.4,4.8-2.1c0.2,0,0.3,0,0.5,0c1.8-0.1,3.9,0.5,5.2-0.4c1.3-0.8,1.8-3,2.5-4.6c2.3-4.9,4.6-9.8,7-14.7
	c2.1-4.3,3.6-5.1,8.3-4.8c1.8,0.1,3.6,0.2,5.4,0.2c1.5,0,1.8,0.8,1.4,2c-0.5,1.4-1.1,2.8-1.7,4.2c-2.6,5.4-5.2,10.8-7.9,16.2
	c-0.8,1.7-0.7,2,1.2,2.1c3.6,0.2,7.3,0.2,10.9,0.4c1.7,0.1,2,0.5,1.5,2.2c-0.6,2.1-3,3.7-5.9,3.7c-2.9,0.1-5.8,0.1-8.7,0
	c-2.1-0.1-3.1,0.6-4.1,2.5c-6.1,12.9-12.3,25.7-18.5,38.5c-1.1,2.2-2,4.4-1.2,7c0.8,2.5,2.3,3.9,4.8,3.2c2.3-0.7,4.7-1.8,6.6-3.3
	c6.6-5.2,12.3-11.2,17.4-17.9c4.1-5.4,8-10.9,12.3-16.2c7-8.6,15.1-15.9,25.7-19.7c5.1-1.8,10.3-2.9,15.6-0.9
	c3.5,1.3,5.8,3.8,7.6,7.1c0.5,0.8,0.9,1.7,1.5,2.8c1.1-2.2,2.2-4.1,3.1-6.1c1.1-2.6,2.9-3.9,5.8-3.6c1.7,0.2,3.4,0.1,5,0.1
	c2.4,0.1,2.7,0.4,1.9,2.7c-1,2.8-2.2,5.5-3.5,8.1c-5.9,12.2-11.8,24.3-17.6,36.6c-0.9,1.9-1.5,4.1-1.6,6.1c-0.2,3.8,2.6,5.4,5.9,3.3
	c2.1-1.3,4.1-2.7,5.7-4.5c5.2-5.7,10.5-11.3,15.2-17.3c2.3-2.8,3.5-6.5,5.1-9.8c5.4-10.9,10.7-21.9,16-32.9
	c4.5-9.2,9-18.4,13.5-27.6c2.6-5.3,5.1-10.6,7.6-16c1.1-2.4,2.9-3.6,5.6-3.6c2.3,0,4.5,0,6.8,0c1.9,0,2.3,0.5,1.8,2.3
	c-0.5,1.7-1.1,3.4-1.8,5c-2.8,5.8-5.7,11.5-8.5,17.3c-5.6,11.4-11.1,22.9-16.7,34.3c-6.8,13.8-13.6,27.6-20.4,41.4
	c-1.3,2.7-2.7,5.5-2,8.8c0.6,2.7,3.2,4.3,5.6,3.1c2.6-1.3,5.1-3,7.3-4.9c6.5-5.8,11.8-12.7,17-19.7c1.6-2.2,2.7-4.7,3.9-7.2
	c3.1-6.5,6.2-13.1,9.2-19.6c0.8-1.7,2-2.5,3.9-2.3c0.5,0.1,1,0.1,1.5,0.2c2.9,0.7,5.7,1.4,8.7,2.2c-1.6,3.2-3.3,6.7-5,10.2
	c-5.2,10.8-10.4,21.7-15.6,32.6c-0.7,1.5-1.2,3.1-1.5,4.8c-0.3,1.9,0.7,3.2,2.6,3.6c3.7,0.8,6.7-0.9,9.6-2.6
	c6.4-3.9,10.8-9.5,14.9-15.5c4.5-6.7,8.2-13.9,13.5-20.1c8.3-9.7,18.2-16.7,30.7-19.8c8.1-2,15,1.5,17.9,9.3
	c0.1,0.3,0.3,0.6,0.6,1.2c1.1-2.2,2.3-4.1,3.2-6.2c1.3-3,3.5-4.3,6.8-3.9c1.6,0.2,3.2,0.3,4.9,0.4c1.4,0.1,2,0.9,1.6,2.2
	c-0.9,2.4-1.8,4.8-2.9,7c-6.3,13.1-12.7,26.1-19,39.1c-0.6,1.2-1,2.5-1.4,3.7c-0.5,1.9-0.3,3.7,1.4,5c1.5,1.2,3.3,1.1,5.4-0.2
	c4.2-2.7,7.6-6.3,10.7-10.1c3.9-4.7,7.5-9.5,11.3-14.3c0.6-0.7,1.1-1.5,1.8-2.1c1.3-1.2,2.9-0.7,3,1c0.1,1.2-0.2,2.5-0.8,3.6
	c-4.5,7.7-10,14.6-16.2,20.9c-4,4.1-8.1,8.3-13.1,11.3c-2.6,1.6-5.4,2.8-8.3,3.7c-3.3,1-6.7-0.6-8.5-3.6c-1.7-2.9-2.2-6.1-1.6-9.4
	c0.3-1.8,0.8-3.5,1.3-5.6c-0.6,0.5-0.9,0.8-1.2,1.1c-2.9,3.1-5.7,6.2-8.7,9.2c-4.1,4.1-8.8,7.3-14.6,8.3c-9.2,1.6-17.2-4-19-13.1
	c-0.4-2.1-0.4-4.2-0.5-6.4c0-0.7,0-1.4,0-2.1C269.2,129.9,269.1,129.9,268.9,129.8L268.9,129.8z M132.8,129.2
	c0,6.6,4.2,10.1,9.7,8.6c2-0.5,4-1.4,5.6-2.5c11.7-8.4,20.2-19.4,25.5-32.8c1.2-3.2,1.9-6.5,1.3-10c-0.9-5.2-4.7-8-9.7-6.6
	c-2.5,0.7-5,1.9-7.1,3.5c-9.9,7.3-16.6,17.1-21.8,28.1C134.6,121.4,133,125.5,132.8,129.2L132.8,129.2z M327.5,95.4
	c-0.1-1.2-0.1-2.3-0.3-3.4c-0.5-3.6-3.2-6.9-7.8-6.3c-3.5,0.4-6.6,1.7-9.3,3.9c-10.6,8.5-18.1,19.3-22.9,31.9
	c-1.1,3-1.6,6.4-1.8,9.6c-0.4,5.5,5.2,8.4,9.7,6.9c1.8-0.6,3.7-1.5,5.3-2.5c10.7-7.1,18.2-16.9,23.9-28.3
	C326.1,103.4,327.6,99.6,327.5,95.4L327.5,95.4z"/>
<path class="st0" d="M94.6,24.6c-3.4,0-6.5-0.1-9.6,0c-10.5,0.4-20.5,2.5-30.1,7C40.6,38.4,30.4,49,24.6,63.9
	c-2.8,7.2-3.9,14.6-2.8,22.3c1.4,9.9,6,18,14.7,23.5c1.2,0.8,2.4,1.7,3.4,2.6c0.5,0.4,0.7,1.1,1.1,1.7c-0.7,0.3-1.3,0.8-2,0.9
	c-3.1,0.3-6-0.5-8.8-1.8c-5.1-2.4-8.9-6.2-12.2-10.6c-4.8-6.4-8.5-13.3-9.2-21.4c-1.1-14.6,3-27.6,12.5-38.7
	c8.1-9.5,18.2-16.3,30.2-20.3c12.5-4.2,25.3-5.7,38.3-5.5c4.1,0,8.2,0.3,12.3,0.2c1.1,0,2.3-0.7,3.2-1.4
	c8.2-6.4,17.2-11.1,27.3-13.6c6.9-1.7,13.9-2.5,21-0.7c1.7,0.4,3.3,1.1,4.9,1.8c8.9,4.5,6.8,14.8,1.5,18.9c-4.2,3.2-9,4.6-14.2,5.2
	c-7.5,1-15,0.9-22.5-0.1c-4.7-0.6-9.4-1-14.2-1.7c-1.9-0.2-3.2,0.3-4.5,1.6c-9.4,9.5-16.2,20.7-22,32.7
	c-6.9,14.2-12.9,28.8-18.2,43.7c-5.5,15.2-11.7,30.2-18.8,44.7c-1.7,3.4-3,7-4.3,10.6c-0.3,0.7-0.2,2,0.2,2.5
	c4.1,4.6,4.3,10.1,3.8,15.7c-0.4,3.9-1.7,7.6-3.6,11c-6.1,11.1-12.2,22.1-18.3,33.1c-0.8,1.4-1.4,2.8-2.3,4.1
	c-0.4,0.6-1.4,0.8-2.2,1.2c-0.1-0.8-0.6-1.7-0.3-2.3c1.6-4,3.4-7.9,5.1-11.8c3.8-8.5,7.6-17,11.4-25.5c0.3-0.8,0.5-1.9,0.1-2.5
	c-0.5-0.8-1.5-1.5-2.3-1.7c-1.3-0.2-2.2,0.8-2.8,2c-3.4,7-6.7,14-10.1,20.9c-2.3,4.7-4.6,9.4-7,14.2c-0.4,0.8-0.9,1.7-1.5,2.3
	c-0.5,0.4-1.5,0.5-2.2,0.3c-0.3-0.1-0.6-1.2-0.5-1.8c0-0.8,0.3-1.6,0.6-2.3c5-12.1,9.9-24.3,14.9-36.4c0.6-1.4,0-3.1-1.4-3.7
	c-1.5-0.6-2.8-0.1-3.5,1.4c-3.5,7.8-7,15.6-10.6,23.4c-2,4.5-4.1,8.9-6.1,13.4c-0.2,0.5-0.4,1-0.8,1.3c-0.5,0.3-1.1,0.4-1.6,0.6
	c-0.1-0.5-0.4-1.1-0.3-1.6c1.3-4.2,2.6-8.4,4-12.6c3.1-9,6.2-18.1,9.4-27c2.3-6.5,6.1-11.9,11.8-15.9c2.5-1.8,5.1-2.9,8.1-3.1
	c1.1-0.1,1.5-0.6,2-1.6c6-12.7,8.9-26.4,13-39.7c5.6-18.2,12-36.2,20.7-53.3C73,55.5,77.2,48,81.9,40.9c3.4-5.2,7.8-9.9,11.8-14.8
	C94,25.7,94.2,25.2,94.6,24.6L94.6,24.6z M116.3,17.1c0.1,0.3,0.1,0.6,0.2,0.9c2.2,0.2,4.3,0.5,6.5,0.6c5.1,0.4,10.1,0.8,15.2,0.9
	c3.3,0.1,6.6-0.5,9.3-2.3c3.3-2.2,3.2-4.1,0.4-6.4c-2.4-1.9-5.4-2.6-8.4-1.9c-4.6,1.1-9.2,2.2-13.7,3.7
	C122.5,13.7,119.4,15.5,116.3,17.1L116.3,17.1z"/>
<path class="st1" d="M277.4,62.7c-0.9,2.4-1.2,4.7-3.1,6c-1.4,1-3.1,1.1-4.8,0.4c-2.8-1.1-5.6-2.3-9.2-1c1.2-2.3,2.1-4.1,3.1-5.9
	c0.2-0.4,1.1-0.7,1.7-0.6c2.1,0.3,4.2,0.5,6.2,1.2C273.3,63.5,275.1,64,277.4,62.7z"/>
<path class="st2" d="M255.2,79.7c0.8-1.5,1.5-3.4,2.7-4.9c0.5-0.7,1.9-1.1,2.9-1.1c1.3,0,2.6,0.3,3.9,0.7c2.3,0.7,4.5,1.8,7.2,0.5
	c-0.8,1.8-1.4,3.4-2.2,4.8c-0.8,1.5-2.6,2.1-4.6,1.6c-1.6-0.4-3.1-1.1-4.7-1.3C258.7,79.7,257,79.8,255.2,79.7L255.2,79.7z"/>
</svg>
